# xmcd CD database file
#
# Track frame offsets:
#	182
#	16522
#	38520
#	55302
#	69062
#	86212
#	99720
#	113580
#	132640
#	156215
#	180257
#	190652
#	215762
#	232935
#
# Disc length: 3311 seconds
#
# Revision: 2
# Processed by: cddbd v1.4PL0 Copyright (c) Steve Scherf et al.
# Submitted via: CDex 1.40Beta8
#
DISCID=ac0ced0e
DTITLE=Tony Joe White - Rainy night in Georgia
DYEAR=1995
DGENRE=Blues
TTITLE0=Rainy night in Georgia
TTITLE1=Willie and Laura Mae Jones
TTITLE2=Polk Salad Annie
TTITLE3=Groupie girl
TTITLE4=Don't steal my love
TTITLE5=Scratch my back
TTITLE6=Roosevelt and Ira Lee
TTITLE7=I thought I knew you well
TTITLE8=Elements and Things
TTITLE9=I want you
TTITLE10=Save your sugar for me
TTITLE11=Stud spider
TTITLE12=High Sheriff of Calhoun Parrish
TTITLE13=Stockholm Blues
EXTD=YEAR: 1995 ID3G: 0
EXTT0=
EXTT1=
EXTT2=
EXTT3=
EXTT4=
EXTT5=
EXTT6=
EXTT7=
EXTT8=
EXTT9=
EXTT10=
EXTT11=
EXTT12=
EXTT13=
PLAYORDER=
